<svg width="134" height="137" viewBox="0 0 134 137" fill="none" xmlns="http://www.w3.org/2000/svg">
<path d="M128.998 64.7957C128.998 29.3378 100.254 0.593551 64.7956 0.593553C29.3377 0.593554 0.59344 29.3378 0.593442 64.7957C0.593444 100.254 29.3378 128.998 64.7957 128.998C100.254 128.998 128.998 100.254 128.998 64.7957Z" fill="#88CBFF"/>
<path d="M111.932 97.7272C118.462 88.3996 122.294 77.0432 122.294 64.7918C122.294 33.0386 96.5537 7.29822 64.8005 7.29822C53.2274 7.29822 42.453 10.7182 33.4322 16.6018" stroke="black" stroke-width="2" stroke-miterlimit="10" stroke-linecap="round"/>
<path d="M18.3113 30.9557C11.3901 40.4487 7.3053 52.1436 7.3053 64.7919C7.3053 96.5452 33.0457 122.286 64.7989 122.286C76.4126 122.286 87.2216 118.841 96.2619 112.92C96.3822 112.842 96.5026 112.762 96.6214 112.683" stroke="black" stroke-width="2" stroke-miterlimit="10" stroke-linecap="round"/>
<path d="M132.525 114.652C138.614 87.4856 92.4797 69.3678 74.2732 110.257C63.5788 134.274 124.149 152.02 132.525 114.652Z" fill="#4050A5"/>
<path d="M104.738 122.36C104.306 122.36 103.85 122.328 103.37 122.264C102.89 122.216 102.426 122.144 101.978 122.048C101.53 121.952 101.122 121.848 100.754 121.736C100.386 121.624 100.098 121.52 99.8896 121.424L100.586 118.448C101.002 118.624 101.53 118.816 102.17 119.024C102.826 119.216 103.634 119.312 104.594 119.312C105.698 119.312 106.506 119.104 107.018 118.688C107.53 118.272 107.786 117.712 107.786 117.008C107.786 116.576 107.69 116.216 107.498 115.928C107.322 115.624 107.074 115.384 106.754 115.208C106.434 115.016 106.05 114.888 105.602 114.824C105.17 114.744 104.706 114.704 104.21 114.704H102.818V111.824H104.402C104.754 111.824 105.09 111.792 105.41 111.728C105.746 111.664 106.042 111.56 106.298 111.416C106.554 111.256 106.754 111.048 106.898 110.792C107.058 110.52 107.138 110.184 107.138 109.784C107.138 109.48 107.074 109.216 106.946 108.992C106.818 108.768 106.65 108.584 106.442 108.44C106.25 108.296 106.018 108.192 105.746 108.128C105.49 108.048 105.226 108.008 104.954 108.008C104.266 108.008 103.626 108.112 103.034 108.32C102.458 108.528 101.93 108.784 101.45 109.088L100.178 106.472C100.434 106.312 100.73 106.144 101.066 105.968C101.418 105.792 101.802 105.632 102.218 105.488C102.634 105.344 103.074 105.224 103.538 105.128C104.018 105.032 104.522 104.984 105.05 104.984C106.026 104.984 106.866 105.104 107.57 105.344C108.29 105.568 108.882 105.896 109.346 106.328C109.81 106.744 110.154 107.24 110.378 107.816C110.602 108.376 110.714 108.992 110.714 109.664C110.714 110.32 110.53 110.96 110.162 111.584C109.794 112.192 109.298 112.656 108.674 112.976C109.538 113.328 110.202 113.856 110.666 114.56C111.146 115.248 111.386 116.08 111.386 117.056C111.386 117.824 111.258 118.536 111.002 119.192C110.746 119.832 110.346 120.392 109.802 120.872C109.258 121.336 108.562 121.704 107.714 121.976C106.882 122.232 105.89 122.36 104.738 122.36Z" fill="white"/>
<path d="M92.06 41H69.37C68.88 41 68.49 41.39 68.49 41.88C68.49 42.37 68.88 42.76 69.37 42.76H91.17V47.17H38.76V42.76H60.56C61.05 42.76 61.44 42.36 61.44 41.88C61.44 41.4 61.05 41 60.56 41H37.88C37.39 41 37 41.39 37 41.88V48.05C37 48.54 37.39 48.93 37.88 48.93H38.54V85.27C38.54 85.76 38.93 86.15 39.42 86.15H64.09V90.9L63.94 90.95C62.71 91.39 61.88 92.55 61.88 93.86C61.88 95.56 63.26 96.94 64.96 96.94C66.66 96.94 68.04 95.56 68.04 93.86C68.04 92.56 67.21 91.39 65.98 90.95L65.83 90.9V86.15H90.5C90.99 86.15 91.38 85.76 91.38 85.27V48.93H92.04C92.53 48.93 92.92 48.53 92.92 48.05V41.88C92.94 41.39 92.54 41 92.06 41ZM66.29 93.85C66.29 94.58 65.7 95.17 64.97 95.17C64.24 95.17 63.65 94.58 63.65 93.85C63.65 93.12 64.24 92.53 64.97 92.53C65.7 92.53 66.29 93.12 66.29 93.85ZM89.63 84.38H40.3V48.93H89.63V84.38Z" fill="black"/>
<path d="M43.83 65.33H56.16C56.65 65.33 57.04 64.93 57.04 64.45V54.21C57.04 53.72 56.65 53.33 56.16 53.33H43.83C43.34 53.33 42.95 53.73 42.95 54.21V64.45C42.95 64.94 43.34 65.33 43.83 65.33ZM44.71 55.09H55.28V63.57H44.71V55.09Z" fill="black"/>
<path d="M43.83 79.98H56.16C56.65 79.98 57.04 79.59 57.04 79.1V68.86C57.04 68.37 56.65 67.98 56.16 67.98H43.83C43.34 67.98 42.95 68.38 42.95 68.86V79.1C42.95 79.58 43.34 79.98 43.83 79.98ZM44.71 69.74H55.28V78.22H44.71V69.74Z" fill="black"/>
<path d="M73.78 65.33H86.11C86.6 65.33 86.99 64.93 86.99 64.45V54.21C86.99 53.72 86.6 53.33 86.11 53.33H73.78C73.29 53.33 72.9 53.73 72.9 54.21V64.45C72.9 64.94 73.29 65.33 73.78 65.33ZM74.66 55.09H85.23V63.57H74.66V55.09Z" fill="black"/>
<path d="M73.78 79.98H86.11C86.6 79.98 86.99 79.59 86.99 79.1V68.86C86.99 68.37 86.6 67.98 86.11 67.98H73.78C73.29 67.98 72.9 68.38 72.9 68.86V79.1C72.9 79.58 73.29 79.98 73.78 79.98ZM74.66 69.74H85.23V78.22H74.66V69.74Z" fill="black"/>
<path d="M60.58 79.98H69.39C69.88 79.98 70.27 79.59 70.27 79.1V54.21C70.27 53.72 69.88 53.33 69.39 53.33H60.58C60.09 53.33 59.7 53.73 59.7 54.21V79.1C59.7 79.58 60.09 79.98 60.58 79.98ZM61.46 55.09H68.51V78.21H61.46V55.09Z" fill="black"/>
<path d="M65.59 42.5C65.75 42.34 65.85 42.11 65.85 41.88C65.85 41.65 65.76 41.42 65.59 41.26C65.43 41.09 65.2 41 64.97 41C64.74 41 64.51 41.09 64.35 41.26C64.19 41.42 64.09 41.65 64.09 41.88C64.09 42.11 64.18 42.34 64.35 42.5C64.67 42.83 65.26 42.83 65.59 42.5Z" fill="black"/>
</svg>
